<?xml version="1.0" encoding="UTF-8" standalone="no"?>
<!-- Created with Inkscape (http://www.inkscape.org/) -->

<svg
   version="1.1"
   id="svg824"
   xml:space="preserve"
   width="507.8996"
   height="113.38667"
   viewBox="0 0 507.8996 113.38667"
   xmlns="http://www.w3.org/2000/svg"
   xmlns:svg="http://www.w3.org/2000/svg"><defs
     id="defs828"><rect
       x="136.20782"
       y="26.08235"
       width="135.1203"
       height="105.00845"
       id="rect4229" /></defs><g
     id="g830"
     transform="matrix(1.3333333,0,0,-1.3333333,-112.73346,226.77186)"
     style="display:inline"><g
       id="g840"
       transform="translate(203.4961,156.7999)"><path
         d="m 0,0 c -1.397,5.227 -5.514,9.343 -10.741,10.74 -9.474,2.539 -47.463,2.539 -47.463,2.539 0,0 -37.989,0 -47.463,-2.539 -5.227,-1.397 -9.344,-5.513 -10.741,-10.74 -2.538,-9.474 -2.538,-29.241 -2.538,-29.241 0,0 0,-19.767 2.538,-29.24 1.397,-5.227 5.514,-9.344 10.741,-10.741 9.474,-2.539 47.463,-2.539 47.463,-2.539 0,0 37.989,0 47.463,2.539 5.227,1.397 9.344,5.514 10.741,10.741 2.539,9.473 2.539,29.24 2.539,29.24 0,0 0,19.767 -2.539,29.241"
         style="fill:#ff0000;fill-opacity:1;fill-rule:nonzero;stroke:none"
         id="path842" /></g><g
       id="g848"
       transform="translate(274.351,101.0558)"><path
         d="m 0,0 c 0.665,1.736 0.999,4.574 0.999,8.513 v 16.594 c 0,3.822 -0.334,6.616 -0.999,8.383 -0.667,1.766 -1.84,2.65 -3.519,2.65 -1.622,0 -2.766,-0.884 -3.431,-2.65 -0.667,-1.767 -0.999,-4.561 -0.999,-8.383 V 8.513 c 0,-3.939 0.317,-6.777 0.955,-8.513 0.637,-1.738 1.795,-2.606 3.475,-2.606 1.679,0 2.852,0.868 3.519,2.606 m -13.466,-8.341 c -2.404,1.62 -4.113,4.141 -5.125,7.559 -1.014,3.416 -1.521,7.963 -1.521,13.639 v 7.732 c 0,5.734 0.578,10.339 1.738,13.813 1.157,3.475 2.967,6.009 5.429,7.602 2.461,1.592 5.691,2.389 9.687,2.389 3.938,0 7.094,-0.811 9.469,-2.433 2.375,-1.621 4.112,-4.156 5.213,-7.601 1.099,-3.446 1.651,-8.036 1.651,-13.77 v -7.732 c 0,-5.676 -0.536,-10.238 -1.607,-13.683 -1.072,-3.446 -2.81,-5.966 -5.213,-7.558 -2.404,-1.593 -5.662,-2.389 -9.774,-2.389 -4.228,0 -7.544,0.811 -9.947,2.432"
         style="fill:#282828;fill-opacity:1;fill-rule:nonzero;stroke:none"
         id="path850" /></g><g
       id="g852"
       transform="translate(446.9258,136.2003)"><path
         d="m 0,0 c -0.607,-0.753 -1.014,-1.984 -1.216,-3.692 -0.204,-1.709 -0.304,-4.3 -0.304,-7.775 v -3.823 h 8.774 v 3.823 c 0,3.416 -0.116,6.008 -0.347,7.775 C 6.675,-1.926 6.256,-0.681 5.647,0.043 5.039,0.768 4.098,1.13 2.824,1.13 1.549,1.13 0.608,0.752 0,0 m -1.52,-22.414 v -2.693 c 0,-3.418 0.1,-5.981 0.304,-7.689 0.202,-1.709 0.621,-2.954 1.26,-3.736 0.637,-0.781 1.62,-1.173 2.954,-1.173 1.794,0 3.025,0.695 3.691,2.086 0.665,1.39 1.028,3.706 1.086,6.95 l 10.339,-0.608 c 0.058,-0.465 0.087,-1.102 0.087,-1.911 0,-4.924 -1.347,-8.602 -4.04,-11.035 -2.692,-2.431 -6.502,-3.648 -11.424,-3.648 -5.907,0 -10.049,1.852 -12.424,5.56 -2.376,3.706 -3.562,9.44 -3.562,17.202 v 9.296 c 0,7.993 1.23,13.827 3.693,17.506 2.461,3.677 6.675,5.516 12.641,5.516 4.111,0 7.268,-0.753 9.469,-2.258 2.2,-1.507 3.75,-3.853 4.648,-7.037 0.898,-3.186 1.347,-7.589 1.347,-13.206 v -9.122 z"
         style="fill:#282828;fill-opacity:1;fill-rule:nonzero;stroke:none"
         id="path854" /></g><g
       id="g856"
       transform="translate(231.6914,114.7833)"><path
         d="M 0,0 -13.64,49.26 H -1.738 L 3.04,26.932 C 4.257,21.429 5.154,16.738 5.733,12.858 h 0.348 c 0.405,2.78 1.303,7.442 2.693,13.987 L 13.726,49.26 H 25.628 L 11.815,0 V -23.632 H 0 Z"
         style="fill:#282828;fill-opacity:1;fill-rule:nonzero;stroke:none"
         id="path858" /></g><g
       id="g860"
       transform="translate(326.1357,144.4068)"><path
         d="m 0,0 v -53.255 h -9.383 l -1.043,6.515 h -0.26 c -2.549,-4.923 -6.372,-7.384 -11.468,-7.384 -3.533,0 -6.139,1.158 -7.819,3.475 -1.68,2.316 -2.519,5.937 -2.519,10.859 V 0 h 11.989 v -39.094 c 0,-2.376 0.261,-4.07 0.782,-5.082 0.521,-1.015 1.389,-1.521 2.606,-1.521 1.043,0 2.042,0.318 2.997,0.956 0.956,0.637 1.665,1.447 2.129,2.432 V 0 Z"
         style="fill:#282828;fill-opacity:1;fill-rule:nonzero;stroke:none"
         id="path862" /></g><g
       id="g864"
       transform="translate(387.6318,144.4068)"><path
         d="m 0,0 v -53.255 h -9.383 l -1.043,6.515 h -0.26 c -2.55,-4.923 -6.372,-7.384 -11.468,-7.384 -3.533,0 -6.139,1.158 -7.819,3.475 -1.68,2.316 -2.519,5.937 -2.519,10.859 V 0 h 11.989 v -39.094 c 0,-2.376 0.26,-4.07 0.781,-5.082 0.522,-1.015 1.39,-1.521 2.607,-1.521 1.043,0 2.042,0.318 2.997,0.956 0.956,0.637 1.664,1.447 2.129,2.432 V 0 Z"
         style="fill:#282828;fill-opacity:1;fill-rule:nonzero;stroke:none"
         id="path866" /></g><g
       id="g868"
       transform="translate(358.7138,154.3981)"><path
         d="M 0,0 H -11.902 V -63.247 H -23.63 V 0 H -35.532 V 9.644 H 0 Z"
         style="fill:#282828;fill-opacity:1;fill-rule:nonzero;stroke:none"
         id="path870" /></g><g
       id="g872"
       transform="translate(416.3213,114.171)"><path
         d="m 0,0 c 0,-3.881 -0.16,-6.922 -0.479,-9.122 -0.318,-2.202 -0.854,-3.766 -1.607,-4.691 -0.753,-0.927 -1.768,-1.39 -3.04,-1.39 -0.985,0 -1.897,0.23 -2.736,0.695 -0.841,0.463 -1.521,1.157 -2.042,2.085 V 17.81 c 0.404,1.447 1.099,2.635 2.085,3.562 0.984,0.925 2.054,1.39 3.214,1.39 1.216,0 2.157,-0.478 2.824,-1.433 0.665,-0.956 1.129,-2.563 1.389,-4.823 C -0.131,14.248 0,11.034 0,6.864 Z m 10.989,21.723 c -0.724,3.358 -1.897,5.791 -3.518,7.298 -1.622,1.504 -3.853,2.258 -6.69,2.258 -2.201,0 -4.257,-0.623 -6.168,-1.868 -1.911,-1.245 -3.388,-2.882 -4.43,-4.909 h -0.088 l 10e-4,28.062 h -11.555 v -75.583 h 9.903 l 1.217,5.039 h 0.261 c 0.926,-1.795 2.315,-3.214 4.17,-4.257 1.852,-1.042 3.909,-1.564 6.169,-1.564 4.052,0 7.036,1.868 8.947,5.604 1.911,3.736 2.867,9.57 2.867,17.506 v 8.426 c 0,5.965 -0.362,10.628 -1.086,13.988"
         style="fill:#282828;fill-opacity:1;fill-rule:nonzero;stroke:none"
         id="path874" /></g><text
       xml:space="preserve"
       transform="matrix(0.75000002,0,0,-0.75000002,0,255.118)"
       id="text4227"
       style="font-style:normal;font-weight:normal;font-size:40px;line-height:1.25;font-family:sans-serif;letter-spacing:0px;word-spacing:0px;white-space:pre;shape-inside:url(#rect4229);fill:#000000;fill-opacity:1;stroke:none" /></g><g
     id="layer1"
     style="display:inline"
     transform="translate(-112.73346,-113.38547)"><g
       id="g30883"
       style="fill:#ffffff;fill-opacity:1"
       transform="matrix(1.1207689,0,0,1.1207689,-22.676665,108.36619)"><path
         d="m 193.08185,38.784095 -6.63543,-0.291667 c 0,-0.704862 -0.48611,-1.276044 -1.45833,-1.713547 -0.77778,-0.364577 -1.68924,-0.546866 -2.73438,-0.546866 -1.26388,0 -2.35763,0.255209 -3.28124,0.765626 -0.89931,0.486107 -1.34896,1.081591 -1.34896,1.786454 -0.68056,0 -1.31251,0.218751 -1.89584,0.656253 -0.58333,0.413191 -0.875,0.862845 -0.875,1.34896 0,0.461805 0.0851,0.911458 0.25522,1.34896 -5.12847,3.427075 -11.13195,5.140613 -18.01042,5.140613 0.51041,-3.184027 1.72569,-5.869787 3.64583,-8.05728 2.06597,-2.479173 5.26216,-4.618062 9.58855,-6.416666 5.63889,-2.138889 13.22222,-3.305555 22.75,-3.5 9.52777,0.194445 17.12326,1.361111 22.78645,3.5 4.30208,1.798604 7.51041,3.937493 9.625,6.416666 1.89583,2.211805 3.08681,4.897565 3.57292,8.05728 -6.87847,0 -12.86979,-1.713538 -17.97396,-5.140613 0.14583,-0.437502 0.21875,-0.887155 0.21875,-1.34896 0,-0.534729 -0.31597,-1.008689 -0.94792,-1.42188 -0.55903,-0.388889 -1.16666,-0.583333 -1.82291,-0.583333 0,-0.826391 -0.58333,-1.48264 -1.75,-1.968747 -0.87501,-0.388889 -1.83508,-0.583333 -2.88021,-0.583333 -1.21528,0 -2.23611,0.230902 -3.0625,0.692706 -0.75347,0.437503 -1.13021,0.960072 -1.13021,1.567707 z m 0,4.265626 c 3.59721,0 5.83332,-0.206595 6.70833,-0.619786 0.70486,-0.340285 1.05729,-1.057303 1.05729,-2.151054 v -0.437493 c 0,-1.409725 1.02083,-2.114587 3.0625,-2.114587 0.97222,0 1.79861,0.230902 2.47917,0.692707 0.58333,0.388889 0.875,0.862849 0.875,1.42188 v 0.94792 c 0,4.350693 0.75347,7.899302 2.26041,10.645826 1.06944,1.944445 3.0868,4.399307 6.05208,7.364587 2.16319,2.187502 3.63368,4.071182 4.41146,5.65104 0.65625,1.336809 1.04514,2.96528 1.16666,4.885413 0.0729,0.850693 0.55901,2.15104 1.45834,3.90104 0.68056,1.336809 1.02084,2.515631 1.02084,3.536466 0,1.531245 -0.42535,2.600689 -1.27604,3.208334 -0.72917,0.559022 -1.89583,0.838533 -3.5,0.838533 h -51.51563 c -3.18403,0 -4.77604,-1.348956 -4.77604,-4.046867 0,-1.045137 0.4132,-2.381942 1.23959,-4.010413 0.72916,-1.409725 1.14235,-2.552089 1.23957,-3.427093 0.19445,-2.211805 0.70486,-4.059027 1.53125,-5.541667 0.77778,-1.409715 2.12674,-3.074644 4.04688,-4.994786 3.35416,-3.354169 5.54166,-6.173613 6.5625,-8.458333 1.14236,-2.479165 1.71354,-5.663191 1.71354,-9.55208 v -0.94792 c 0,-0.631947 0.37673,-1.166671 1.1302,-1.604173 0.63195,-0.340276 1.37327,-0.510414 2.22396,-0.510414 2.04167,0 3.06251,0.704862 3.06251,2.114587 v 0.437493 c 0,1.21528 0.49826,1.980907 1.49479,2.29688 0.97222,0.315973 3.0625,0.47396 6.27084,0.47396 z m 0,34.052079 c 4.49652,0 8.25173,-1.628471 11.26562,-4.885413 2.60069,-2.843751 3.90104,-6.173613 3.90104,-9.989586 0,-4.399307 -1.66493,-8.069444 -4.9948,-11.010413 -2.89235,-2.55208 -6.28297,-3.82812 -10.17186,-3.82812 -4.49653,0 -8.25174,1.628471 -11.26563,4.885413 -2.60069,2.843751 -3.90104,6.161458 -3.90104,9.95312 0,4.423609 1.66493,8.105902 4.99479,11.046879 2.89236,2.55208 6.28299,3.82812 10.17188,3.82812 z m -36.0573,-28.401039 c 7.17013,0 13.39236,-1.737849 18.66667,-5.213547 0.65625,1.21528 0.98437,2.309031 0.98437,3.281254 0,1.701387 -2.11458,3.281249 -6.34374,4.739586 -3.42709,1.166667 -6.72049,1.75 -9.88022,1.75 -1.28819,0 -2.16319,-0.303818 -2.625,-0.911453 -0.53472,-0.68056 -0.80208,-1.89584 -0.80208,-3.64584 z m 72.11459,0 c 0,1.968747 -0.34028,3.269093 -1.02084,3.90104 -0.48611,0.437502 -1.28819,0.656253 -2.40625,0.656253 -3.71875,0 -7.42534,-0.74132 -11.11979,-2.22396 -3.37847,-1.361111 -5.06771,-2.782986 -5.06771,-4.265626 0,-0.972223 0.31597,-2.065974 0.94792,-3.281254 5.27431,3.475698 11.49653,5.213547 18.66667,5.213547 z"
         style="font-size:56px;line-height:1.25;font-family:'Yu Gothic';-inkscape-font-specification:'Yu Gothic, Normal';letter-spacing:0px;word-spacing:0px;white-space:pre;inline-size:89.7784;fill:#ffffff;fill-opacity:1;stroke-width:1"
         id="path29611" /><path
         d="M 184.88496,73.525674 207.29295,62.394682 184.88496,51.263691 Z"
         style="display:inline;fill:#ffffff;fill-opacity:1;fill-rule:nonzero;stroke:none;stroke-width:0.65853"
         id="path846-7" /></g></g></svg>
